<?xml version="1.0" encoding="UTF-8"?>
<!DOCTYPE svg PUBLIC "-//W3C//DTD SVG 1.1//EN" "http://www.w3.org/Graphics/SVG/1.1/DTD/svg11.dtd">
<svg xmlns="http://www.w3.org/2000/svg" version="1.1" width="512px" height="512px" style="shape-rendering:geometricPrecision; text-rendering:geometricPrecision; image-rendering:optimizeQuality; fill-rule:evenodd; clip-rule:evenodd" xmlns:xlink="http://www.w3.org/1999/xlink">
<g><path style="opacity:1" fill="#019fff" d="M 326.5,40.5 C 334.5,40.5 342.5,40.5 350.5,40.5C 349.469,64.0977 341.636,85.0977 327,103.5C 310.617,135.884 309.283,168.884 323,202.5C 330.434,214.932 337.434,227.599 344,240.5C 347.904,250.269 349.737,260.269 349.5,270.5C 321.205,209.201 275.205,167.534 211.5,145.5C 223.229,109.536 244.562,80.7022 275.5,59C 291.342,49.3331 308.342,43.1664 326.5,40.5 Z"/></g>
<g><path style="opacity:1" fill="#019fff" d="M 365.5,43.5 C 390.265,49.7883 411.432,62.1216 429,80.5C 463.056,119.817 480.222,165.65 480.5,218C 480.053,262.003 467.553,302.17 443,338.5C 422.723,366.899 395.556,385.233 361.5,393.5C 360.833,393.167 360.167,392.833 359.5,392.5C 367.843,364.189 368.51,335.689 361.5,307C 367.437,283.574 366.603,260.407 359,237.5C 351,222.833 343,208.167 335,193.5C 324.72,164.264 326.72,135.93 341,108.5C 351.036,94.4625 358.369,79.1292 363,62.5C 363.966,56.1708 364.799,49.8375 365.5,43.5 Z"/></g>
<g><path style="opacity:1" fill="#019fff" d="M 139.5,150.5 C 183.139,147.824 222.806,158.991 258.5,184C 303.995,216.191 333.828,259.358 348,313.5C 357.759,355.714 349.759,394.047 324,428.5C 319.833,434 315,438.833 309.5,443C 307.613,443.163 306.113,442.329 305,440.5C 290.148,423.309 281.482,403.309 279,380.5C 268.833,348.009 248.333,324.509 217.5,310C 205.728,305.911 193.728,302.578 181.5,300C 149.92,290.087 128.42,269.587 117,238.5C 113.931,224.225 109.931,210.225 105,196.5C 100.201,186.539 94.0338,177.539 86.5,169.5C 86.9767,168.522 87.6433,167.689 88.5,167C 104.618,158.348 121.618,152.848 139.5,150.5 Z"/></g>
<g><path style="opacity:1" fill="#019fff" d="M 72.5,177.5 C 83.6264,187.516 91.4597,199.849 96,214.5C 102.323,260.809 126.823,293.309 169.5,312C 180.061,315.093 190.728,317.76 201.5,320C 230.447,329.947 250.613,349.114 262,377.5C 265.626,388.672 268.626,400.006 271,411.5C 276.216,426.275 284.216,439.275 295,450.5C 295.749,451.635 295.583,452.635 294.5,453.5C 269.608,467.245 242.942,472.745 214.5,470C 145.341,460.021 92.8407,425.188 57,365.5C 35.6926,329.602 27.6926,290.935 33,249.5C 37.8721,220.833 51.0387,196.833 72.5,177.5 Z"/></g>
</svg>
