<?xml version="1.0" standalone="no"?>
<!DOCTYPE svg PUBLIC "-//W3C//DTD SVG 20010904//EN"
 "http://www.w3.org/TR/2001/REC-SVG-20010904/DTD/svg10.dtd">
<svg version="1.0" xmlns="http://www.w3.org/2000/svg"
 width="512.000000pt" height="512.000000pt" viewBox="0 0 512.000000 512.000000"
 preserveAspectRatio="xMidYMid meet">
<metadata>
Created by potrace 1.14, written by Peter Selinger 2001-2017
</metadata>
<g transform="translate(0.000000,512.000000) scale(0.100000,-0.100000)"
fill="#000000" stroke="none">
<path d="M3196 4694 c-442 -80 -822 -416 -1035 -915 -23 -53 -41 -100 -41
-105 0 -5 30 -20 68 -33 109 -37 359 -165 469 -238 334 -224 602 -526 789
-888 22 -44 43 -87 46 -95 3 -8 8 -12 11 -9 13 11 -23 197 -53 281 -18 49 -65
140 -110 213 -90 144 -131 236 -168 374 -22 85 -25 115 -25 266 0 151 3 181
26 267 34 129 80 232 159 358 84 134 100 167 131 267 22 67 47 209 47 260 0
18 -210 16 -314 -3z"/>
<path d="M3656 4648 c-3 -18 -8 -59 -11 -91 -15 -139 -62 -253 -193 -470 -128
-212 -169 -362 -159 -587 9 -198 53 -332 175 -526 80 -129 132 -240 159 -343
34 -127 38 -368 10 -502 -17 -80 -17 -91 -3 -161 28 -137 39 -305 27 -440 -10
-109 -37 -267 -56 -327 -8 -27 2 -27 111 5 597 173 1043 830 1082 1594 13 262
-7 476 -69 709 -148 559 -526 1003 -977 1145 -46 14 -85 26 -87 26 -2 0 -6
-15 -9 -32z"/>
<path d="M1390 3605 c-8 -2 -49 -9 -90 -15 -41 -7 -111 -24 -155 -37 -90 -28
-258 -104 -269 -121 -4 -7 15 -38 42 -71 111 -133 153 -225 217 -479 83 -323
189 -482 436 -652 92 -63 184 -99 390 -150 199 -49 325 -107 446 -204 225
-182 354 -393 411 -672 26 -126 61 -227 107 -310 37 -66 151 -214 164 -214 4
0 36 27 70 60 147 144 267 354 323 565 31 116 32 127 32 330 0 181 -3 224 -22
313 -117 534 -465 1032 -947 1354 -121 80 -327 181 -455 223 -187 60 -284 76
-495 80 -104 2 -197 2 -205 0z"/>
<path d="M651 3255 c-173 -180 -273 -384 -316 -643 -24 -141 -16 -423 14 -565
168 -771 805 -1419 1571 -1596 263 -61 563 -51 797 25 89 29 243 103 243 117
0 5 -18 30 -41 55 -102 116 -189 285 -224 432 -62 265 -112 382 -220 517 -126
157 -331 289 -515 332 -47 11 -116 27 -155 36 -274 63 -570 305 -711 580 -50
97 -77 177 -104 315 -22 110 -64 222 -114 305 -34 57 -126 175 -136 175 -4 0
-44 -38 -89 -85z"/>
</g>
</svg>
