<svg width="22" height="16" viewBox="0 0 22 16" fill="none" xmlns="http://www.w3.org/2000/svg">
<path d="M21.832 6.57149V7.14291C21.832 7.6163 21.44 8.00005 20.9564 8.00005H20.6645L19.7118 14.5282C19.5886 15.3727 18.8497 16 17.9782 16H4.67115C3.79967 16 3.0608 15.3727 2.93752 14.5282L1.98486 8.00005H1.69299C1.2094 8.00005 0.817383 7.6163 0.817383 7.14291V6.57149C0.817383 6.0981 1.2094 5.71435 1.69299 5.71435H4.14984L8.04556 0.470777C8.42481 -0.0396485 9.15492 -0.152541 9.67642 0.218707C10.1979 0.589955 10.3132 1.3047 9.93392 1.81516L7.03701 5.71435H15.6123L12.7154 1.81513C12.3362 1.3047 12.4515 0.589919 12.973 0.218671C13.4944 -0.152576 14.2246 -0.0397199 14.6038 0.470741L18.4995 5.71435H20.9564C21.44 5.71435 21.832 6.0981 21.832 6.57149ZM12.2003 12.8572V8.85719C12.2003 8.3838 11.8083 8.00005 11.3247 8.00005C10.8411 8.00005 10.4491 8.3838 10.4491 8.85719V12.8572C10.4491 13.3306 10.8411 13.7143 11.3247 13.7143C11.8083 13.7143 12.2003 13.3306 12.2003 12.8572ZM16.2865 12.8572V8.85719C16.2865 8.3838 15.8944 8.00005 15.4108 8.00005C14.9273 8.00005 14.5352 8.3838 14.5352 8.85719V12.8572C14.5352 13.3306 14.9273 13.7143 15.4108 13.7143C15.8944 13.7143 16.2865 13.3306 16.2865 12.8572ZM8.11411 12.8572V8.85719C8.11411 8.3838 7.7221 8.00005 7.23851 8.00005C6.75491 8.00005 6.3629 8.3838 6.3629 8.85719V12.8572C6.3629 13.3306 6.75491 13.7143 7.23851 13.7143C7.7221 13.7143 8.11411 13.3306 8.11411 12.8572Z" fill="#2C3639"/>
</svg>
