<svg width="22" height="16" viewBox="0 0 22 16" fill="none" xmlns="http://www.w3.org/2000/svg">
<path d="M21.4008 6.57149V7.14291C21.4008 7.6163 21.0088 8.00005 20.5252 8.00005H20.2333L19.2806 14.5282C19.1574 15.3727 18.4185 16 17.547 16H4.24C3.36851 16 2.62965 15.3727 2.50637 14.5282L1.55371 8.00005H1.26184C0.778247 8.00005 0.38623 7.6163 0.38623 7.14291V6.57149C0.38623 6.0981 0.778247 5.71435 1.26184 5.71435H3.71868L7.61441 0.470777C7.99366 -0.0396485 8.72377 -0.152541 9.24526 0.218707C9.76673 0.589955 9.88201 1.3047 9.50277 1.81516L6.60585 5.71435H15.1812L12.2843 1.81513C11.905 1.3047 12.0204 0.589919 12.5418 0.218671C13.0632 -0.152576 13.7934 -0.0397199 14.1727 0.470741L18.0684 5.71435H20.5252C21.0088 5.71435 21.4008 6.0981 21.4008 6.57149ZM11.7691 12.8572V8.85719C11.7691 8.3838 11.3771 8.00005 10.8935 8.00005C10.4099 8.00005 10.0179 8.3838 10.0179 8.85719V12.8572C10.0179 13.3306 10.4099 13.7143 10.8935 13.7143C11.3771 13.7143 11.7691 13.3306 11.7691 12.8572ZM15.8553 12.8572V8.85719C15.8553 8.3838 15.4633 8.00005 14.9797 8.00005C14.4961 8.00005 14.1041 8.3838 14.1041 8.85719V12.8572C14.1041 13.3306 14.4961 13.7143 14.9797 13.7143C15.4633 13.7143 15.8553 13.3306 15.8553 12.8572ZM7.68296 12.8572V8.85719C7.68296 8.3838 7.29094 8.00005 6.80735 8.00005C6.32376 8.00005 5.93175 8.3838 5.93175 8.85719V12.8572C5.93175 13.3306 6.32376 13.7143 6.80735 13.7143C7.29094 13.7143 7.68296 13.3306 7.68296 12.8572Z" fill="#DCD7C9"/>
</svg>
