<?xml version="1.0" encoding="UTF-8"?>
<!DOCTYPE svg PUBLIC "-//W3C//DTD SVG 1.1//EN" "http://www.w3.org/Graphics/SVG/1.1/DTD/svg11.dtd">
<svg xmlns="http://www.w3.org/2000/svg" version="1.1" width="512px" height="512px" style="shape-rendering:geometricPrecision; text-rendering:geometricPrecision; image-rendering:optimizeQuality; fill-rule:evenodd; clip-rule:evenodd" xmlns:xlink="http://www.w3.org/1999/xlink">
<g><path style="opacity:1" fill="#00b7ec" d="M 411.5,8.5 C 419.174,8.33365 426.841,8.50031 434.5,9C 435.766,9.30945 436.933,9.80945 438,10.5C 446.381,47.6899 442.047,83.3566 425,117.5C 413.997,136.846 401.997,155.513 389,173.5C 367.693,208.051 359.026,245.385 363,285.5C 340.517,272.673 324.85,254.007 316,229.5C 295.75,164.335 305.75,104.335 346,49.5C 363.148,28.1544 384.981,14.4877 411.5,8.5 Z"/></g>
<g><path style="opacity:1" fill="#00b7ec" d="M 511.5,105.5 C 511.5,123.5 511.5,141.5 511.5,159.5C 506.337,195.49 492.17,227.49 469,255.5C 453.969,272.765 435.469,284.598 413.5,291C 402.486,292.943 391.486,292.943 380.5,291C 379.283,289.352 378.45,287.519 378,285.5C 371.659,255.599 375.326,226.932 389,199.5C 393,192.167 397,184.833 401,177.5C 415.646,158.495 428.313,138.161 439,116.5C 452.819,84.4369 457.485,51.1036 453,16.5C 453.414,16.0426 453.914,15.7093 454.5,15.5C 476.893,28.0674 492.727,46.4007 502,70.5C 506.289,82.0021 509.456,93.6687 511.5,105.5 Z"/></g>
<g><path style="opacity:1" fill="#00b7ec" d="M -0.5,199.5 C -0.5,190.833 -0.5,182.167 -0.5,173.5C 7.26527,145.841 22.2653,122.674 44.5,104C 90.8603,66.5755 143.527,52.5755 202.5,62C 226.676,66.8269 246.509,78.6602 262,97.5C 266.68,103.518 269.68,110.185 271,117.5C 241.849,146.148 206.682,161.315 165.5,163C 146.652,163.312 127.819,162.812 109,161.5C 67.3776,160.204 30.8776,172.871 -0.5,199.5 Z"/></g>
<g><path style="opacity:1" fill="#00b7ec" d="M 273.5,132.5 C 274.496,132.414 275.329,132.748 276,133.5C 277.667,156.496 272,177.496 259,196.5C 228.101,237.99 186.935,263.156 135.5,272C 100.721,278.362 67.7208,273.362 36.5,257C 20.4445,247.207 9.11115,233.54 2.5,216C 17.5408,198.002 36.5408,186.002 59.5,180C 72.936,176.445 86.6026,174.445 100.5,174C 123.813,175.036 147.146,175.37 170.5,175C 209.785,172.2 244.119,158.033 273.5,132.5 Z"/></g>
<g><path style="opacity:1" fill="#00b8ec" d="M 238.5,253.5 C 259.799,251.934 279.466,256.768 297.5,268C 301.299,270.797 304.799,273.964 308,277.5C 299.397,302.485 284.897,323.651 264.5,341C 239.567,360.302 211.901,374.635 181.5,384C 150.052,396.796 124.552,416.962 105,444.5C 101.412,450.675 98.0785,457.009 95,463.5C 94.2825,464.451 93.4491,464.617 92.5,464C 83.1606,446.306 79.6606,427.473 82,407.5C 87.2013,372.437 101.535,341.77 125,315.5C 155.396,281.055 193.229,260.388 238.5,253.5 Z"/></g>
<g><path style="opacity:1" fill="#00b8ec" d="M 317.5,290.5 C 320.997,294.148 323.497,298.481 325,303.5C 332.23,327.128 332.23,350.794 325,374.5C 306.016,427.954 270.849,466.787 219.5,491C 193.795,502.529 167.129,505.529 139.5,500C 125.915,496.127 114.082,489.293 104,479.5C 105.612,470.259 108.945,461.592 114,453.5C 133.166,426.154 158.332,406.32 189.5,394C 221.873,384.228 250.873,368.561 276.5,347C 293.868,330.807 307.535,311.973 317.5,290.5 Z"/></g>
</svg>
